<svg id="Layer_3" data-name="Layer 3" xmlns="http://www.w3.org/2000/svg" viewBox="0 0 222.35 70.98"><defs><style>.cls-1{fill:#1c1c1c;}</style></defs><title>logo-ct-black</title><path class="cls-1" d="M712.69,700.93H649a3.62,3.62,0,0,0-3.62,3.61V734.9a3.62,3.62,0,0,0,3.62,3.61H662v29.78a3.62,3.62,0,0,0,3.62,3.62H696a3.61,3.61,0,0,0,3.61-3.62V738.51h13.08a3.62,3.62,0,0,0,3.62-3.61V704.54A3.62,3.62,0,0,0,712.69,700.93Zm-63.16,4.19h29.19v29.2H649.53Zm45.89,62.59h-29.2v-29.2h29.2Zm16.69-33.39H682.92v-29.2h29.19Z" transform="translate(-645.33 -700.93)"/><path class="cls-1" d="M669.34,724.55a2.11,2.11,0,0,0,1.49.62,2.1,2.1,0,0,0,1.48-3.58l-6.7-6.71a2.12,2.12,0,0,0-3,0l-6.7,6.71a2.1,2.1,0,0,0,3,3l5.22-5.21Z" transform="translate(-645.33 -700.93)"/><path class="cls-1" d="M692.3,724.55l5.22-5.21,5.21,5.21a2.11,2.11,0,0,0,1.49.62,2.1,2.1,0,0,0,1.48-3.58l-6.7-6.71a2.12,2.12,0,0,0-3,0l-6.7,6.71a2.1,2.1,0,0,0,3,3Z" transform="translate(-645.33 -700.93)"/><path class="cls-1" d="M675.6,748.28a2.1,2.1,0,0,0-3,3l6.71,6.71a2.11,2.11,0,0,0,3,0l6.7-6.71a2.1,2.1,0,0,0-3-3l-5.22,5.22Z" transform="translate(-645.33 -700.93)"/><path class="cls-1" d="M735.33,728.93a11.18,11.18,0,0,1-4.37-4.2,12.21,12.21,0,0,1,0-12.07,11.37,11.37,0,0,1,4.39-4.2,13.79,13.79,0,0,1,11.38-.53,10.48,10.48,0,0,1,3.24,2.13.94.94,0,0,1,0,1.36l-1.39,1.3a1,1,0,0,1-1.29,0,7.88,7.88,0,0,0-5.47-2.06,8.5,8.5,0,0,0-4.21,1,7.39,7.39,0,0,0-2.91,2.85,8.78,8.78,0,0,0,0,8.29,7.39,7.39,0,0,0,2.91,2.85,8.5,8.5,0,0,0,4.21,1,7.87,7.87,0,0,0,5.47-2.08.94.94,0,0,1,1.29,0L750,726a1,1,0,0,1,0,1.36,10.46,10.46,0,0,1-3.26,2.13,13,13,0,0,1-5.14,1A12.87,12.87,0,0,1,735.33,728.93Z" transform="translate(-645.33 -700.93)"/><path class="cls-1" d="M764.42,713.48v1.85a.94.94,0,0,1-.94.95h0a4.9,4.9,0,0,0-3.72,1.39,5.47,5.47,0,0,0-1.34,4v7.51a1,1,0,0,1-.95,1h-2.19a1,1,0,0,1-.94-1V713.64a.94.94,0,0,1,.94-.95h2a.94.94,0,0,1,.94.95v1.6a6.33,6.33,0,0,1,5.2-2.71A.94.94,0,0,1,764.42,713.48Z" transform="translate(-645.33 -700.93)"/><path class="cls-1" d="M783.54,722.71H770.75a4.72,4.72,0,0,0,1.88,3,6.13,6.13,0,0,0,3.76,1.13,6.45,6.45,0,0,0,4.09-1.32,1,1,0,0,1,1.28.15l1,1.14a.92.92,0,0,1,0,1.29,7.5,7.5,0,0,1-2.36,1.48,11.7,11.7,0,0,1-9.1-.43,8.24,8.24,0,0,1-3.38-3.18,9,9,0,0,1-1.19-4.62,9.14,9.14,0,0,1,1.16-4.58,8.18,8.18,0,0,1,3.21-3.18,9.42,9.42,0,0,1,4.64-1.15,9.17,9.17,0,0,1,4.55,1.13,8,8,0,0,1,3.13,3.17,9.6,9.6,0,0,1,1.13,4.71c0,.09,0,.19,0,.3A1,1,0,0,1,783.54,722.71Zm-11.18-5.79a4.84,4.84,0,0,0-1.64,3.08h9.88a4.82,4.82,0,0,0-1.59-3.07,5.33,5.33,0,0,0-6.65,0Z" transform="translate(-645.33 -700.93)"/><path class="cls-1" d="M800.85,714.34q2,1.85,2,5.56v9.27a1,1,0,0,1-.95,1h-2a1,1,0,0,1-.94-1V728a4.7,4.7,0,0,1-2.14,1.74,9.28,9.28,0,0,1-6.77-.06,5.33,5.33,0,0,1-2.27-1.86,4.78,4.78,0,0,1-.8-2.7,4.62,4.62,0,0,1,1.75-3.77c1.16-.94,3-1.41,5.5-1.41h4.5v-.27a3.56,3.56,0,0,0-1.09-2.8,4.7,4.7,0,0,0-3.25-1,9.24,9.24,0,0,0-2.89.46A7.85,7.85,0,0,0,790,717a1,1,0,0,1-1.32-.35L788,715.4a.93.93,0,0,1,.33-1.25,10.46,10.46,0,0,1,2.56-1.1,14.63,14.63,0,0,1,4.08-.56A8.49,8.49,0,0,1,800.85,714.34Zm-3.72,12.33a3.81,3.81,0,0,0,1.68-2v-2H794.6c-2.35,0-3.52.78-3.52,2.32a2.06,2.06,0,0,0,.88,1.76,4,4,0,0,0,2.44.66A5.24,5.24,0,0,0,797.13,726.67Z" transform="translate(-645.33 -700.93)"/><path class="cls-1" d="M818.69,728.46a.94.94,0,0,1-.42,1.18,5.78,5.78,0,0,1-1,.41,7.74,7.74,0,0,1-2.17.3,6.15,6.15,0,0,1-4.44-1.51,5.78,5.78,0,0,1-1.57-4.37v-8.39h-1.92a1,1,0,0,1-1-.94v-1.37a1,1,0,0,1,1-.95h1.92v-3a1,1,0,0,1,1-.95h2.19a.94.94,0,0,1,.94.95v3h3.72a.94.94,0,0,1,.95.95v1.37a.94.94,0,0,1-.95.94h-3.72v8.29a2.76,2.76,0,0,0,.62,1.94,2.32,2.32,0,0,0,1.8.67,4,4,0,0,0,1.47-.25.94.94,0,0,1,1.21.54Z" transform="translate(-645.33 -700.93)"/><path class="cls-1" d="M823.67,712.69h2.19a.94.94,0,0,1,.94.95v15.53a1,1,0,0,1-.94,1h-2.19a1,1,0,0,1-.95-1V713.64A1,1,0,0,1,823.67,712.69Z" transform="translate(-645.33 -700.93)"/><path class="cls-1" d="M848.29,714l-6.66,15.53a1,1,0,0,1-.87.58h-3a1,1,0,0,1-.87-.58L830.27,714a.94.94,0,0,1,.87-1.32h2.18a1,1,0,0,1,.87.58l5.17,12.34,5.34-12.35a.94.94,0,0,1,.86-.57h1.86A.94.94,0,0,1,848.29,714Z" transform="translate(-645.33 -700.93)"/><path class="cls-1" d="M866.73,722.71H854a4.71,4.71,0,0,0,1.87,3,6.16,6.16,0,0,0,3.77,1.13,6.4,6.4,0,0,0,4.08-1.32,1,1,0,0,1,1.28.15l1,1.14a.94.94,0,0,1-.05,1.29,7.62,7.62,0,0,1-2.36,1.48,11.7,11.7,0,0,1-9.1-.43,8.18,8.18,0,0,1-3.38-3.18,8.93,8.93,0,0,1-1.19-4.62,9,9,0,0,1,1.16-4.58,8.18,8.18,0,0,1,3.21-3.18,9.38,9.38,0,0,1,4.63-1.15,9.18,9.18,0,0,1,4.56,1.13,8,8,0,0,1,3.13,3.17,9.59,9.59,0,0,1,1.12,4.71v.3A1,1,0,0,1,866.73,722.71Zm-11.17-5.79a4.9,4.9,0,0,0-1.65,3.08h9.89a4.76,4.76,0,0,0-4.93-4.24A4.88,4.88,0,0,0,855.56,716.92Z" transform="translate(-645.33 -700.93)"/><path class="cls-1" d="M738.45,746.31h-6.62a.94.94,0,0,1-1-.95v-1.7a.94.94,0,0,1,1-.94h17.49a.94.94,0,0,1,.94.94v1.7a.94.94,0,0,1-.94.95h-6.63v18.31a.94.94,0,0,1-.94.94H739.4a.94.94,0,0,1-.95-.94Z" transform="translate(-645.33 -700.93)"/><path class="cls-1" d="M791.64,749.85q1.92,1.9,1.92,5.73v9a.94.94,0,0,1-.94.94h-2.19a1,1,0,0,1-.95-.94V756.1a5.07,5.07,0,0,0-1-3.44,3.61,3.61,0,0,0-2.9-1.16,4.27,4.27,0,0,0-3.3,1.35,5.55,5.55,0,0,0-1.24,3.87v7.9a.94.94,0,0,1-.94.94H777.9a1,1,0,0,1-.95-.94V756.1a5.07,5.07,0,0,0-1-3.44,3.61,3.61,0,0,0-2.9-1.16,4.25,4.25,0,0,0-3.32,1.34,5.57,5.57,0,0,0-1.22,3.88v7.9a.94.94,0,0,1-.94.94h-2.19a1,1,0,0,1-1-.94V749.08a1,1,0,0,1,1-.94h2a1,1,0,0,1,.95.94v1.27a6.28,6.28,0,0,1,2.44-1.79,8.4,8.4,0,0,1,3.27-.62,7.86,7.86,0,0,1,3.47.73,5.72,5.72,0,0,1,2.4,2.17,7.28,7.28,0,0,1,2.77-2.13,9.06,9.06,0,0,1,3.76-.77A7.12,7.12,0,0,1,791.64,749.85Z" transform="translate(-645.33 -700.93)"/><rect class="cls-1" x="177.39" y="4.18" width="4.08" height="4.08" rx="2.04"/><path class="cls-1" d="M755.28,748.19h2.19a1,1,0,0,1,.95.95v15.53a1,1,0,0,1-.95,1h-2.19a.94.94,0,0,1-.94-1V749.14A1,1,0,0,1,755.28,748.19Z" transform="translate(-645.33 -700.93)"/><rect class="cls-1" x="109.01" y="39.68" width="4.08" height="4.08" rx="2.04"/></svg>